<svg width="66" height="82" viewBox="0 0 66 82" fill="none" xmlns="http://www.w3.org/2000/svg">
<path d="M32.4767 81.2695C31.7855 81.1252 31.4356 80.8868 30.8596 80.1677C30.3681 79.5541 30.2822 79.384 30.1042 78.672C29.9937 78.2301 29.8061 77.6762 29.6874 77.4411C29.5686 77.2059 29.3797 76.7058 29.2678 76.3298C29.1558 75.9537 28.9307 75.399 28.7677 75.0972C28.6046 74.7953 28.4023 74.3339 28.3181 74.0719C28.2338 73.8098 28.0586 73.4393 27.9288 73.2486C27.7989 73.0578 27.5904 72.6754 27.4654 72.3987C27.3404 72.1219 27.1057 71.7103 26.9439 71.4839C26.7821 71.2575 26.5566 70.887 26.4427 70.6606C25.9463 69.6737 24.5718 68.1586 23.4523 67.3646C22.8899 66.9657 22.2774 66.5031 21.8298 66.1391C21.674 66.0125 21.2841 65.7605 20.9635 65.5793C20.6428 65.398 20.2984 65.1744 20.1981 65.0823C20.0978 64.9902 19.8253 64.7978 19.5926 64.6548C19.3599 64.5117 18.8508 64.1476 18.4613 63.8458C17.7893 63.3249 16.959 62.7068 16.0491 62.0499C15.8234 61.887 15.275 61.4423 14.8305 61.0617C14.386 60.6811 13.8279 60.2256 13.5903 60.0496C12.4827 59.2287 9.49859 56.1877 8.27762 54.6356C8.01303 54.2992 7.55035 53.7174 7.24943 53.3425C6.3377 52.2069 4.98869 50.2002 4.5475 49.3233C4.38951 49.0093 4.16666 48.6289 4.05226 48.478C3.93787 48.3271 3.75579 47.9772 3.64765 47.7005C3.53952 47.4237 3.33606 46.9915 3.19553 46.74C3.055 46.4884 2.86797 46.0562 2.77992 45.7795C2.69186 45.5028 2.48284 45.0083 2.31543 44.6806C2.14801 44.3529 1.94366 43.756 1.86132 43.3542C1.77898 42.9524 1.59902 42.3735 1.46142 42.0678C1.17227 41.4254 1.04675 40.9195 0.907128 39.8336C0.812547 39.0981 0.601217 37.966 0.493032 37.6154C0.463737 37.5204 0.353472 37.4553 0.22182 37.4553C-4.93022e-06 37.4553 0 37.4553 0 33.3847C0 29.314 -5.99843e-06 29.314 0.226227 29.314C0.398702 29.314 0.465726 29.2543 0.508272 29.0625C0.53898 28.9241 0.579602 28.7492 0.598589 28.6737C0.617579 28.5982 0.734237 27.8573 0.857831 27.0272C0.981429 26.197 1.18899 25.2091 1.31908 24.8318C1.44917 24.4544 1.67637 23.7066 1.82397 23.17C1.97158 22.6333 2.21316 21.9541 2.36081 21.6607C2.50847 21.3672 2.69857 20.8801 2.78327 20.5782C2.86797 20.2763 3.05367 19.8441 3.19592 19.6177C3.33817 19.3913 3.57709 18.9038 3.72686 18.5345C3.87664 18.1651 4.05972 17.7946 4.13371 17.7112C4.20771 17.6278 4.38735 17.3125 4.53292 17.0107C4.67848 16.7088 4.94409 16.256 5.12316 16.0044C5.30223 15.7529 5.51807 15.4101 5.60279 15.2427C6.20677 14.0492 9.57717 10.1431 11.2193 8.73333C11.9501 8.106 12.2465 7.8625 13.4958 6.86289C13.7215 6.6823 14.0228 6.46303 14.1653 6.3756C14.3078 6.28817 14.6111 6.09315 14.8394 5.94222C15.0676 5.79128 15.5085 5.50314 15.819 5.3019C16.1296 5.10065 16.5238 4.84305 16.6951 4.72946C16.8664 4.61587 17.222 4.44149 17.4853 4.34196C17.7486 4.24243 18.1237 4.05505 18.3187 3.92556C18.5138 3.79608 18.9754 3.57612 19.3446 3.43677C19.7137 3.29741 20.167 3.07913 20.352 2.95169C20.5369 2.82426 20.9677 2.65025 21.3094 2.56501C21.6511 2.47978 22.222 2.26647 22.578 2.091C23.0116 1.87732 23.5385 1.71536 24.1738 1.60052C24.6954 1.50623 25.3041 1.36318 25.5263 1.28264C26.3005 1.00208 26.9549 0.87349 28.3138 0.734866C31.912 0.36781 33.7291 0.348482 37.0223 0.642229C39.0503 0.823126 39.6577 0.920513 40.4166 1.18649C40.7708 1.31063 41.5122 1.49771 42.0643 1.60222C42.7073 1.72394 43.3007 1.90408 43.7154 2.10345C44.0715 2.27462 44.6296 2.48157 44.9556 2.56333C45.2816 2.64509 45.7363 2.83145 45.966 2.97745C46.1958 3.12345 46.6233 3.3256 46.9162 3.42666C47.209 3.52772 47.6365 3.73088 47.8663 3.87812C48.096 4.02536 48.5161 4.23252 48.7998 4.33849C49.0836 4.44445 49.4529 4.6291 49.6205 4.74882C49.7882 4.86853 50.1921 5.13652 50.5181 5.34435C50.8441 5.55218 51.2403 5.81288 51.3986 5.9237C51.5568 6.03451 51.8851 6.23886 52.1281 6.37781C52.371 6.51676 52.8365 6.85857 53.1625 7.1374C53.4885 7.41623 53.9809 7.8153 54.2568 8.02424C54.8985 8.51031 57.6033 11.2254 58.3163 12.0991C59.4709 13.514 60.1762 14.478 60.861 15.5766C61.0076 15.8119 61.2825 16.2514 61.4719 16.5533C61.6613 16.8552 61.9062 17.308 62.0161 17.5595C62.1261 17.8111 62.3273 18.1815 62.4632 18.3828C62.5992 18.584 62.8016 18.9957 62.913 19.2975C63.0245 19.5994 63.2312 20.0522 63.3723 20.3038C63.5135 20.5553 63.6965 21.0081 63.779 21.31C63.8614 21.6119 64.0701 22.1676 64.2427 22.5449C64.4153 22.9222 64.6401 23.6426 64.7425 24.1457C64.8448 24.6488 65.0511 25.4312 65.2009 25.8844C65.4184 26.5426 65.5179 27.1313 65.6957 28.8116C66.0098 31.7808 66.0645 33.2333 65.9339 35.1419C65.7344 38.0572 65.4383 40.0963 65.0668 41.1143C64.9841 41.3407 64.8169 41.9477 64.6951 42.4633C64.5734 42.9789 64.3915 43.5623 64.2911 43.7599C64.1906 43.9574 64.0017 44.4412 63.8712 44.8349C63.7407 45.2287 63.4977 45.7978 63.3311 46.0997C63.1646 46.4015 62.9608 46.8823 62.8782 47.168C62.7956 47.4537 62.6424 47.7968 62.5376 47.9304C62.4328 48.064 62.1747 48.4888 61.9639 48.8745C61.2772 50.131 60.9032 50.7593 60.6554 51.073C60.5215 51.2425 60.2683 51.6017 60.0928 51.8711C59.3375 53.0307 59.0106 53.4674 58.2742 54.3001C57.8451 54.7855 57.2171 55.5059 56.8788 55.9009C55.8076 57.1517 53.9048 59.0245 52.6637 60.0496C52.4505 60.2256 51.9135 60.6784 51.4704 61.0558C51.0273 61.4331 50.4778 61.8757 50.2494 62.0393C48.823 63.0609 48.4845 63.3132 47.828 63.844C47.4268 64.1684 46.9344 64.5229 46.7338 64.6318C46.5332 64.7406 46.129 65.0096 45.8357 65.2296C45.5423 65.4496 45.2703 65.6295 45.2311 65.6295C45.192 65.6295 44.9291 65.8045 44.6471 66.0183C44.365 66.2321 43.7588 66.6746 43.2999 67.0016C41.79 68.0778 40.7367 69.1352 40.1108 70.2033C39.9487 70.48 39.7254 70.8299 39.6148 70.9808C39.5041 71.1317 39.3009 71.4816 39.1631 71.7583C39.0254 72.035 38.8011 72.4261 38.6648 72.6273C38.5285 72.8286 38.3309 73.226 38.2257 73.5104C38.1205 73.7948 37.9139 74.227 37.7664 74.4709C37.619 74.7147 37.4287 75.159 37.3437 75.4583C37.2587 75.7575 37.0677 76.2436 36.9193 76.5384C36.771 76.8332 36.5493 77.4615 36.4268 77.9347C36.1937 78.8346 35.567 80.1034 35.1271 80.5659C34.5753 81.1461 33.3911 81.4605 32.4767 81.2695ZM35.4721 42.0899C36.8341 41.7121 36.8999 41.6876 37.2502 41.4287C37.4007 41.3176 37.7085 41.1336 37.9341 41.02C38.537 40.7164 39.6707 39.7001 40.248 38.9459C40.861 38.1451 41.7073 36.4257 41.9104 35.5686C42.0934 34.7963 42.1202 32.32 41.9558 31.3732C41.8947 31.0216 41.7194 30.4864 41.5662 30.184C41.4129 29.8816 41.2074 29.4302 41.1094 29.1808C40.6009 27.8871 38.3948 25.7528 37.0923 25.2943C36.8281 25.2013 36.3435 24.9976 36.0155 24.8416C35.2607 24.4827 33.9133 24.3257 32.3359 24.4127C31.1955 24.4756 31.0052 24.526 29.4467 25.1783C27.9197 25.8174 26.1437 27.3878 25.3807 28.7738C24.6913 30.0259 24.6268 30.2017 24.3432 31.6009C24.0996 32.8025 24.0651 33.1304 24.1172 33.7506C24.1957 34.6865 24.7376 36.9215 24.9656 37.2496C25.0617 37.3879 25.2986 37.806 25.4921 38.1787C25.9241 39.0107 27.3433 40.4827 28.149 40.9343C28.4403 41.0976 28.8632 41.3451 29.0889 41.4845C29.4566 41.7115 30.3687 42.0034 31.8246 42.3601C32.6783 42.5693 34.1319 42.4616 35.4721 42.0899Z" fill="#235CA3"/>
</svg>
