<svg width="120" height="40" viewBox="0 0 120 40" fill="none" xmlns="http://www.w3.org/2000/svg">
<path fill-rule="evenodd" clip-rule="evenodd" d="M39.9876 20.9691C39.482 31.5645 30.7296 40 20.0058 40C9.72874 40 1.26319 32.2521 0.130737 22.2808C8.78732 32.685 26.7165 33.5287 39.9876 20.9691Z" fill="#85C044"/>
<path fill-rule="evenodd" clip-rule="evenodd" d="M20.0058 0C31.1854 0 40.1921 9.15706 40.007 20.3311C32.6612 14.731 23.1425 12.7849 11.4503 15.4341C16.8523 11.2466 23.837 10.671 31.2629 12.8616C20.8385 4.30123 6.67347 5.94441 0.0614257 21.5679C-0.841326 9.95196 8.32086 0 20.0058 0Z" fill="#235CA3"/>
<path d="M51.9966 7.66565H59.1041V26.9396V32.3283H51.9966V13.0543V7.66565ZM66.8068 7.66565L70.6803 7.67187L65.0519 17.1835L73.908 32.3283H65.9356L59.1228 20.141L66.8068 7.66565ZM74.0711 7.66565H93.3H94.4909V11.2372H87.6843V30.5047V32.3283H80.8777V13.0419V11.2372H74.0711V7.66565ZM104.005 7.66565H110.818L117.976 26.9396L120 32.3283H112.335L109.671 25.1851H101.655L99.2919 32.3345L95.431 32.3283L102.131 13.0543L104.005 7.66565ZM105.515 13.6245L102.551 21.9206L108.43 21.9143L105.515 13.6245Z" fill="#235CA3"/>
<path d="M59.1041 20.1735V26.9395V32.3281H51.9966V20.1735H59.1041ZM66.8004 20.1735L73.908 32.3281H65.9356L59.1409 20.1735H66.8004ZM87.6843 20.1735V30.5046V32.3281H80.8777V20.1735H87.6843ZM115.463 20.1735L117.976 26.9395L120 32.3281H112.335L109.671 25.1849H101.655L99.2919 32.3343L95.431 32.3281L99.6563 20.1735H103.175L102.551 21.9205L108.43 21.9141L107.818 20.1735H115.463Z" fill="#85C044"/>
</svg>